<svg xmlns:xlink="http://www.w3.org/1999/xlink" xmlns="http://www.w3.org/2000/svg" width="200" height="35.62753036437247" viewBox="0 0 247 44" fill="none">
    <path d="M71.69 5.12V17H69.764V5.12H71.69ZM82.0352 4.94C83.1872 4.94 84.1832 5.186 85.0232 5.678C85.8632 6.17 86.5112 6.872 86.9672 7.784C87.4232 8.696 87.6512 9.788 87.6512 11.06C87.6512 12.332 87.4232 13.424 86.9672 14.336C86.5112 15.248 85.8632 15.95 85.0232 16.442C84.1832 16.934 83.1872 17.18 82.0352 17.18C80.8952 17.18 79.9052 16.934 79.0652 16.442C78.2252 15.95 77.5772 15.248 77.1212 14.336C76.6652 13.424 76.4372 12.332 76.4372 11.06C76.4372 9.788 76.6652 8.696 77.1212 7.784C77.5772 6.872 78.2252 6.17 79.0652 5.678C79.9052 5.186 80.8952 4.94 82.0352 4.94ZM82.0352 6.614C81.2912 6.614 80.6492 6.788 80.1092 7.136C79.5812 7.484 79.1732 7.988 78.8852 8.648C78.5972 9.308 78.4532 10.112 78.4532 11.06C78.4532 11.996 78.5972 12.8 78.8852 13.472C79.1732 14.132 79.5812 14.636 80.1092 14.984C80.6492 15.332 81.2912 15.506 82.0352 15.506C82.7912 15.506 83.4332 15.332 83.9612 14.984C84.5012 14.636 84.9152 14.132 85.2032 13.472C85.4912 12.8 85.6352 11.996 85.6352 11.06C85.6352 10.112 85.4912 9.308 85.2032 8.648C84.9152 7.988 84.5012 7.484 83.9612 7.136C83.4332 6.788 82.7912 6.614 82.0352 6.614ZM100.821 5.12V6.776H96.7535V17H94.8275V6.776H90.7595V5.12H100.821ZM113.3 17H111.266L110.132 13.886H105.146L104.012 17H102.032L106.514 5.12H108.818L113.3 17ZM105.686 12.32H109.592L107.648 6.776L105.686 12.32ZM124.425 17V5.12H133.029V6.776H126.351V10.196H131.571V11.816H126.351V15.344H133.281V17H124.425ZM147.393 13.85C147.153 14.57 146.793 15.182 146.313 15.686C145.833 16.178 145.269 16.55 144.621 16.802C143.973 17.054 143.259 17.18 142.479 17.18C141.339 17.18 140.349 16.934 139.509 16.442C138.669 15.95 138.021 15.248 137.565 14.336C137.109 13.424 136.881 12.332 136.881 11.06C136.881 9.788 137.109 8.696 137.565 7.784C138.021 6.872 138.669 6.17 139.509 5.678C140.349 5.186 141.333 4.94 142.461 4.94C143.241 4.94 143.943 5.048 144.567 5.264C145.203 5.48 145.743 5.804 146.187 6.236C146.631 6.668 146.973 7.208 147.213 7.856L145.395 8.666C145.155 7.958 144.807 7.442 144.351 7.118C143.895 6.782 143.301 6.614 142.569 6.614C141.837 6.614 141.195 6.788 140.643 7.136C140.091 7.484 139.659 7.988 139.347 8.648C139.047 9.308 138.897 10.112 138.897 11.06C138.897 11.996 139.041 12.8 139.329 13.472C139.617 14.132 140.031 14.636 140.571 14.984C141.111 15.332 141.759 15.506 142.515 15.506C143.247 15.506 143.877 15.32 144.405 14.948C144.945 14.564 145.329 13.994 145.557 13.238L147.393 13.85ZM156.674 4.94C157.826 4.94 158.822 5.186 159.662 5.678C160.502 6.17 161.15 6.872 161.606 7.784C162.062 8.696 162.29 9.788 162.29 11.06C162.29 12.332 162.062 13.424 161.606 14.336C161.15 15.248 160.502 15.95 159.662 16.442C158.822 16.934 157.826 17.18 156.674 17.18C155.534 17.18 154.544 16.934 153.704 16.442C152.864 15.95 152.216 15.248 151.76 14.336C151.304 13.424 151.076 12.332 151.076 11.06C151.076 9.788 151.304 8.696 151.76 7.784C152.216 6.872 152.864 6.17 153.704 5.678C154.544 5.186 155.534 4.94 156.674 4.94ZM156.674 6.614C155.93 6.614 155.288 6.788 154.748 7.136C154.22 7.484 153.812 7.988 153.524 8.648C153.236 9.308 153.092 10.112 153.092 11.06C153.092 11.996 153.236 12.8 153.524 13.472C153.812 14.132 154.22 14.636 154.748 14.984C155.288 15.332 155.93 15.506 156.674 15.506C157.43 15.506 158.072 15.332 158.6 14.984C159.14 14.636 159.554 14.132 159.842 13.472C160.13 12.8 160.274 11.996 160.274 11.06C160.274 10.112 160.13 9.308 159.842 8.648C159.554 7.988 159.14 7.484 158.6 7.136C158.072 6.788 157.43 6.614 156.674 6.614ZM171.059 4.94C172.127 4.94 173.051 5.144 173.831 5.552C174.611 5.948 175.271 6.536 175.811 7.316L174.515 8.558C174.059 7.862 173.543 7.364 172.967 7.064C172.403 6.752 171.731 6.596 170.951 6.596C170.375 6.596 169.901 6.674 169.529 6.83C169.157 6.986 168.881 7.196 168.701 7.46C168.533 7.712 168.449 8 168.449 8.324C168.449 8.696 168.575 9.02 168.827 9.296C169.091 9.572 169.577 9.788 170.285 9.944L172.697 10.484C173.849 10.736 174.665 11.12 175.145 11.636C175.625 12.152 175.865 12.806 175.865 13.598C175.865 14.33 175.667 14.966 175.271 15.506C174.875 16.046 174.323 16.46 173.615 16.748C172.919 17.036 172.097 17.18 171.149 17.18C170.309 17.18 169.553 17.072 168.881 16.856C168.209 16.64 167.621 16.346 167.117 15.974C166.613 15.602 166.199 15.176 165.875 14.696L167.207 13.364C167.459 13.784 167.777 14.162 168.161 14.498C168.545 14.822 168.989 15.074 169.493 15.254C170.009 15.434 170.579 15.524 171.203 15.524C171.755 15.524 172.229 15.458 172.625 15.326C173.033 15.194 173.339 15.002 173.543 14.75C173.759 14.486 173.867 14.174 173.867 13.814C173.867 13.466 173.747 13.16 173.507 12.896C173.279 12.632 172.847 12.428 172.211 12.284L169.601 11.69C168.881 11.534 168.287 11.312 167.819 11.024C167.351 10.736 167.003 10.388 166.775 9.98C166.547 9.56 166.433 9.092 166.433 8.576C166.433 7.904 166.613 7.298 166.973 6.758C167.345 6.206 167.879 5.768 168.575 5.444C169.271 5.108 170.099 4.94 171.059 4.94ZM188.969 5.12L184.721 12.446V17H182.795V12.446L178.565 5.12H180.707L182.831 8.954L183.767 10.718L184.703 8.954L186.809 5.12H188.969ZM196.372 4.94C197.44 4.94 198.364 5.144 199.144 5.552C199.924 5.948 200.584 6.536 201.124 7.316L199.828 8.558C199.372 7.862 198.856 7.364 198.28 7.064C197.716 6.752 197.044 6.596 196.264 6.596C195.688 6.596 195.214 6.674 194.842 6.83C194.47 6.986 194.194 7.196 194.014 7.46C193.846 7.712 193.762 8 193.762 8.324C193.762 8.696 193.888 9.02 194.14 9.296C194.404 9.572 194.89 9.788 195.598 9.944L198.01 10.484C199.162 10.736 199.978 11.12 200.458 11.636C200.938 12.152 201.178 12.806 201.178 13.598C201.178 14.33 200.98 14.966 200.584 15.506C200.188 16.046 199.636 16.46 198.928 16.748C198.232 17.036 197.41 17.18 196.462 17.18C195.622 17.18 194.866 17.072 194.194 16.856C193.522 16.64 192.934 16.346 192.43 15.974C191.926 15.602 191.512 15.176 191.188 14.696L192.52 13.364C192.772 13.784 193.09 14.162 193.474 14.498C193.858 14.822 194.302 15.074 194.806 15.254C195.322 15.434 195.892 15.524 196.516 15.524C197.068 15.524 197.542 15.458 197.938 15.326C198.346 15.194 198.652 15.002 198.856 14.75C199.072 14.486 199.18 14.174 199.18 13.814C199.18 13.466 199.06 13.16 198.82 12.896C198.592 12.632 198.16 12.428 197.524 12.284L194.914 11.69C194.194 11.534 193.6 11.312 193.132 11.024C192.664 10.736 192.316 10.388 192.088 9.98C191.86 9.56 191.746 9.092 191.746 8.576C191.746 7.904 191.926 7.298 192.286 6.758C192.658 6.206 193.192 5.768 193.888 5.444C194.584 5.108 195.412 4.94 196.372 4.94ZM214.16 5.12V6.776H210.092V17H208.166V6.776H204.098V5.12H214.16ZM218.356 17V5.12H226.96V6.776H220.282V10.196H225.502V11.816H220.282V15.344H227.212V17H218.356ZM243.839 5.12V17H242.057V10.124L242.201 6.848H242.183L238.565 17H236.963L233.345 6.848H233.327L233.471 10.124V17H231.689V5.12H234.551L236.945 11.996L237.773 14.822H237.809L238.655 11.996L241.031 5.12H243.839Z" fill="black"/>
    <path d="M73.958 28.12C75.818 28.12 77.264 28.636 78.296 29.668C79.34 30.688 79.862 32.152 79.862 34.06C79.862 35.968 79.34 37.438 78.296 38.47C77.264 39.49 75.818 40 73.958 40H69.764V28.12H73.958ZM73.958 38.362C75.218 38.362 76.178 37.99 76.838 37.246C77.51 36.49 77.846 35.428 77.846 34.06C77.846 32.692 77.51 31.636 76.838 30.892C76.178 30.136 75.218 29.758 73.958 29.758H71.69V38.362H73.958ZM86.5351 38.344H93.0871V40H84.6091V28.12H86.5351V38.344ZM103.757 28.12V29.776H99.689V40H97.763V29.776H93.695V28.12H103.757ZM123.844 29.776H117.184V33.232H122.404V34.888H117.184V40H115.258V28.12H123.844V29.776ZM132.908 27.94C134.06 27.94 135.056 28.186 135.896 28.678C136.736 29.17 137.384 29.872 137.84 30.784C138.296 31.696 138.524 32.788 138.524 34.06C138.524 35.332 138.296 36.424 137.84 37.336C137.384 38.248 136.736 38.95 135.896 39.442C135.056 39.934 134.06 40.18 132.908 40.18C131.768 40.18 130.778 39.934 129.938 39.442C129.098 38.95 128.45 38.248 127.994 37.336C127.538 36.424 127.31 35.332 127.31 34.06C127.31 32.788 127.538 31.696 127.994 30.784C128.45 29.872 129.098 29.17 129.938 28.678C130.778 28.186 131.768 27.94 132.908 27.94ZM132.908 29.614C132.164 29.614 131.522 29.788 130.982 30.136C130.454 30.484 130.046 30.988 129.758 31.648C129.47 32.308 129.326 33.112 129.326 34.06C129.326 34.996 129.47 35.8 129.758 36.472C130.046 37.132 130.454 37.636 130.982 37.984C131.522 38.332 132.164 38.506 132.908 38.506C133.664 38.506 134.306 38.332 134.834 37.984C135.374 37.636 135.788 37.132 136.076 36.472C136.364 35.8 136.508 34.996 136.508 34.06C136.508 33.112 136.364 32.308 136.076 31.648C135.788 30.988 135.374 30.484 134.834 30.136C134.306 29.788 133.664 29.614 132.908 29.614ZM152.746 28.12V35.446C152.746 37.018 152.332 38.2 151.504 38.992C150.676 39.784 149.47 40.18 147.886 40.18C146.326 40.18 145.126 39.784 144.286 38.992C143.458 38.2 143.044 37.018 143.044 35.446V28.12H144.97V35.212C144.97 36.328 145.21 37.156 145.69 37.696C146.17 38.236 146.902 38.506 147.886 38.506C148.882 38.506 149.62 38.236 150.1 37.696C150.58 37.156 150.82 36.328 150.82 35.212V28.12H152.746ZM167.668 28.12V40H165.382L160.792 32.512L159.64 30.406H159.622L159.694 32.332V40H157.93V28.12H160.198L164.77 35.59L165.94 37.732H165.958L165.886 35.788V28.12H167.668ZM177.267 28.12C179.127 28.12 180.573 28.636 181.605 29.668C182.649 30.688 183.171 32.152 183.171 34.06C183.171 35.968 182.649 37.438 181.605 38.47C180.573 39.49 179.127 40 177.267 40H173.073V28.12H177.267ZM177.267 38.362C178.527 38.362 179.487 37.99 180.147 37.246C180.819 36.49 181.155 35.428 181.155 34.06C181.155 32.692 180.819 31.636 180.147 30.892C179.487 30.136 178.527 29.758 177.267 29.758H174.999V38.362H177.267ZM197.361 40H195.327L194.193 36.886H189.207L188.073 40H186.093L190.575 28.12H192.879L197.361 40ZM189.747 35.32H193.653L191.709 29.776L189.747 35.32ZM208.613 28.12V29.776H204.545V40H202.619V29.776H198.551V28.12H208.613ZM214.736 28.12V40H212.81V28.12H214.736ZM225.081 27.94C226.233 27.94 227.229 28.186 228.069 28.678C228.909 29.17 229.557 29.872 230.013 30.784C230.469 31.696 230.697 32.788 230.697 34.06C230.697 35.332 230.469 36.424 230.013 37.336C229.557 38.248 228.909 38.95 228.069 39.442C227.229 39.934 226.233 40.18 225.081 40.18C223.941 40.18 222.951 39.934 222.111 39.442C221.271 38.95 220.623 38.248 220.167 37.336C219.711 36.424 219.483 35.332 219.483 34.06C219.483 32.788 219.711 31.696 220.167 30.784C220.623 29.872 221.271 29.17 222.111 28.678C222.951 28.186 223.941 27.94 225.081 27.94ZM225.081 29.614C224.337 29.614 223.695 29.788 223.155 30.136C222.627 30.484 222.219 30.988 221.931 31.648C221.643 32.308 221.499 33.112 221.499 34.06C221.499 34.996 221.643 35.8 221.931 36.472C222.219 37.132 222.627 37.636 223.155 37.984C223.695 38.332 224.337 38.506 225.081 38.506C225.837 38.506 226.479 38.332 227.007 37.984C227.547 37.636 227.961 37.132 228.249 36.472C228.537 35.8 228.681 34.996 228.681 34.06C228.681 33.112 228.537 32.308 228.249 31.648C227.961 30.988 227.547 30.484 227.007 30.136C226.479 29.788 225.837 29.614 225.081 29.614ZM245.189 28.12V40H242.903L238.313 32.512L237.161 30.406H237.143L237.215 32.332V40H235.451V28.12H237.719L242.291 35.59L243.461 37.732H243.479L243.407 35.788V28.12H245.189Z" fill="black"/>
    <path d="M35.3299 5.19808C36.8472 5.19808 38.0773 4.03445 38.0773 2.59904C38.0773 1.16363 36.8472 0 35.3299 0C33.8126 0 32.5825 1.16363 32.5825 2.59904C32.5825 4.03445 33.8126 5.19808 35.3299 5.19808Z" fill="black"/>
    <path d="M38.4193 41.9129C39.9366 41.9129 41.1666 40.7493 41.1666 39.3139C41.1666 37.8785 39.9366 36.7148 38.4193 36.7148C36.9019 36.7148 35.6719 37.8785 35.6719 39.3139C35.6719 40.7493 36.9019 41.9129 38.4193 41.9129Z" fill="black"/>
    <path d="M36.1144 11.6962C37.3876 11.6962 38.4197 10.7198 38.4197 9.51533C38.4197 8.31087 37.3876 7.33447 36.1144 7.33447C34.8412 7.33447 33.8091 8.31087 33.8091 9.51533C33.8091 10.7198 34.8412 11.6962 36.1144 11.6962Z" fill="black"/>
    <path d="M42.2458 12.5321C43.5189 12.5321 44.5511 11.5557 44.5511 10.3513C44.5511 9.14681 43.5189 8.17041 42.2458 8.17041C40.9726 8.17041 39.9404 9.14681 39.9404 10.3513C39.9404 11.5557 40.9726 12.5321 42.2458 12.5321Z" fill="black"/>
    <path d="M35.3298 17.222C36.414 17.222 37.2929 16.3906 37.2929 15.3649C37.2929 14.3393 36.414 13.5078 35.3298 13.5078C34.2456 13.5078 33.3667 14.3393 33.3667 15.3649C33.3667 16.3906 34.2456 17.222 35.3298 17.222Z" fill="black"/>
    <path d="M41.4616 18.0086C42.5458 18.0086 43.4247 17.1772 43.4247 16.1515C43.4247 15.1259 42.5458 14.2944 41.4616 14.2944C40.3774 14.2944 39.4985 15.1259 39.4985 16.1515C39.4985 17.1772 40.3774 18.0086 41.4616 18.0086Z" fill="black"/>
    <path d="M46.3669 19.8211C47.4511 19.8211 48.33 18.9897 48.33 17.964C48.33 16.9384 47.4511 16.1069 46.3669 16.1069C45.2827 16.1069 44.4038 16.9384 44.4038 17.964C44.4038 18.9897 45.2827 19.8211 46.3669 19.8211Z" fill="black"/>
    <path d="M39.6456 22.4653C40.5933 22.4653 41.3615 21.7385 41.3615 20.842C41.3615 19.9455 40.5933 19.2188 39.6456 19.2188C38.6979 19.2188 37.9297 19.9455 37.9297 20.842C37.9297 21.7385 38.6979 22.4653 39.6456 22.4653Z" fill="black"/>
    <path d="M33.5143 21.6738C34.4619 21.6738 35.2302 20.947 35.2302 20.0505C35.2302 19.154 34.4619 18.4272 33.5143 18.4272C32.5666 18.4272 31.7983 19.154 31.7983 20.0505C31.7983 20.947 32.5666 21.6738 33.5143 21.6738Z" fill="black"/>
    <path d="M44.6036 24.2729C45.5513 24.2729 46.3195 23.5462 46.3195 22.6496C46.3195 21.7531 45.5513 21.0264 44.6036 21.0264C43.6559 21.0264 42.8877 21.7531 42.8877 22.6496C42.8877 23.5462 43.6559 24.2729 44.6036 24.2729Z" fill="black"/>
    <path d="M37.1932 25.8553C38.007 25.8553 38.6667 25.2312 38.6667 24.4613C38.6667 23.6915 38.007 23.0674 37.1932 23.0674C36.3794 23.0674 35.7197 23.6915 35.7197 24.4613C35.7197 25.2312 36.3794 25.8553 37.1932 25.8553Z" fill="black"/>
    <path d="M42.1507 27.618C42.9645 27.618 43.6243 26.9939 43.6243 26.224C43.6243 25.4542 42.9645 24.8301 42.1507 24.8301C41.337 24.8301 40.6772 25.4542 40.6772 26.224C40.6772 26.9939 41.337 27.618 42.1507 27.618Z" fill="black"/>
    <path d="M31.1092 25.0193C31.923 25.0193 32.5828 24.3953 32.5828 23.6254C32.5828 22.8555 31.923 22.2314 31.1092 22.2314C30.2955 22.2314 29.6357 22.8555 29.6357 23.6254C29.6357 24.3953 30.2955 25.0193 31.1092 25.0193Z" fill="black"/>
    <path d="M34.4934 28.1264C35.1707 28.1264 35.7198 27.607 35.7198 26.9663C35.7198 26.3256 35.1707 25.8062 34.4934 25.8062C33.8161 25.8062 33.2671 26.3256 33.2671 26.9663C33.2671 27.607 33.8161 28.1264 34.4934 28.1264Z" fill="black"/>
    <path d="M36.6039 31.3325C37.1998 31.3325 37.6829 30.8755 37.6829 30.3117C37.6829 29.748 37.1998 29.291 36.6039 29.291C36.008 29.291 35.5249 29.748 35.5249 30.3117C35.5249 30.8755 36.008 31.3325 36.6039 31.3325Z" fill="black"/>
    <path d="M34.0037 31.9799C34.492 31.9799 34.8878 31.6054 34.8878 31.1435C34.8878 30.6816 34.492 30.3071 34.0037 30.3071C33.5155 30.3071 33.1196 30.6816 33.1196 31.1435C33.1196 31.6054 33.5155 31.9799 34.0037 31.9799Z" fill="black"/>
    <path d="M31.6981 29.5654C32.294 29.5654 32.7771 29.1084 32.7771 28.5447C32.7771 27.9809 32.294 27.5239 31.6981 27.5239C31.1022 27.5239 30.6191 27.9809 30.6191 28.5447C30.6191 29.1084 31.1022 29.5654 31.6981 29.5654Z" fill="black"/>
    <path d="M28.3616 27.3393C29.0389 27.3393 29.5879 26.8199 29.5879 26.1792C29.5879 25.5384 29.0389 25.019 28.3616 25.019C27.6843 25.019 27.1353 25.5384 27.1353 26.1792C27.1353 26.8199 27.6843 27.3393 28.3616 27.3393Z" fill="black"/>
    <path d="M28.3142 18.6113C28.9915 18.6113 29.5406 18.0919 29.5406 17.4511C29.5406 16.8104 28.9915 16.291 28.3142 16.291C27.6369 16.291 27.0879 16.8104 27.0879 17.4511C27.0879 18.0919 27.6369 18.6113 28.3142 18.6113Z" fill="black"/>
    <path d="M28.851 14.5288C29.4469 14.5288 29.9299 14.0718 29.9299 13.508C29.9299 12.9443 29.4469 12.4873 28.851 12.4873C28.2551 12.4873 27.772 12.9443 27.772 13.508C27.772 14.0718 28.2551 14.5288 28.851 14.5288Z" fill="black"/>
    <path d="M30.0301 11.1879C30.5184 11.1879 30.9142 10.8134 30.9142 10.3515C30.9142 9.88959 30.5184 9.51514 30.0301 9.51514C29.5418 9.51514 29.146 9.88959 29.146 10.3515C29.146 10.8134 29.5418 11.1879 30.0301 11.1879Z" fill="black"/>
    <path d="M27.9716 9.60933C28.5675 9.60933 29.0506 9.15233 29.0506 8.5886C29.0506 8.02487 28.5675 7.56787 27.9716 7.56787C27.3757 7.56787 26.8926 8.02487 26.8926 8.5886C26.8926 9.15233 27.3757 9.60933 27.9716 9.60933Z" fill="black"/>
    <path d="M39.4036 29.8935C40.0809 29.8935 40.6299 29.3741 40.6299 28.7334C40.6299 28.0926 40.0809 27.5732 39.4036 27.5732C38.7263 27.5732 38.1772 28.0926 38.1772 28.7334C38.1772 29.3741 38.7263 29.8935 39.4036 29.8935Z" fill="black"/>
    <path d="M25.1721 8.26019C25.8494 8.26019 26.3985 7.74079 26.3985 7.10007C26.3985 6.45935 25.8494 5.93994 25.1721 5.93994C24.4949 5.93994 23.9458 6.45935 23.9458 7.10007C23.9458 7.74079 24.4949 8.26019 25.1721 8.26019Z" fill="black"/>
    <path d="M26.0086 13.1796C26.6858 13.1796 27.2349 12.6602 27.2349 12.0195C27.2349 11.3788 26.6858 10.8594 26.0086 10.8594C25.3313 10.8594 24.7822 11.3788 24.7822 12.0195C24.7822 12.6602 25.3313 13.1796 26.0086 13.1796Z" fill="black"/>
    <path d="M24.6351 17.8694C25.4489 17.8694 26.1086 17.2453 26.1086 16.4755C26.1086 15.7056 25.4489 15.0815 24.6351 15.0815C23.8213 15.0815 23.1616 15.7056 23.1616 16.4755C23.1616 17.2453 23.8213 17.8694 24.6351 17.8694Z" fill="black"/>
    <path d="M20.1671 17.8696C21.1148 17.8696 21.883 17.1428 21.883 16.2463C21.883 15.3498 21.1148 14.623 20.1671 14.623C19.2194 14.623 18.4512 15.3498 18.4512 16.2463C18.4512 17.1428 19.2194 17.8696 20.1671 17.8696Z" fill="black"/>
    <path d="M14.967 18.9847C16.0512 18.9847 16.9301 18.1533 16.9301 17.1276C16.9301 16.102 16.0512 15.2705 14.967 15.2705C13.8828 15.2705 13.0039 16.102 13.0039 17.1276C13.0039 18.1533 13.8828 18.9847 14.967 18.9847Z" fill="black"/>
    <path d="M9.27749 21.6288C10.5507 21.6288 11.5828 20.6524 11.5828 19.4479C11.5828 18.2435 10.5507 17.2671 9.27749 17.2671C8.0043 17.2671 6.97217 18.2435 6.97217 19.4479C6.97217 20.6524 8.0043 21.6288 9.27749 21.6288Z" fill="black"/>
    <path d="M3.388 26.0848C4.90534 26.0848 6.13538 24.9212 6.13538 23.4858C6.13538 22.0503 4.90534 20.8867 3.388 20.8867C1.87067 20.8867 0.640625 22.0503 0.640625 23.4858C0.640625 24.9212 1.87067 26.0848 3.388 26.0848Z" fill="black"/>
    <path d="M6.97183 16.1967C8.24503 16.1967 9.27715 15.2203 9.27715 14.0158C9.27715 12.8114 8.24503 11.835 6.97183 11.835C5.69863 11.835 4.6665 12.8114 4.6665 14.0158C4.6665 15.2203 5.69863 16.1967 6.97183 16.1967Z" fill="black"/>
    <path d="M12.6613 13.5526C13.7455 13.5526 14.6244 12.7211 14.6244 11.6955C14.6244 10.6698 13.7455 9.83838 12.6613 9.83838C11.5771 9.83838 10.6982 10.6698 10.6982 11.6955C10.6982 12.7211 11.5771 13.5526 12.6613 13.5526Z" fill="black"/>
    <path d="M11.8298 8.63363C12.914 8.63363 13.7929 7.80218 13.7929 6.77653C13.7929 5.75089 12.914 4.91943 11.8298 4.91943C10.7456 4.91943 9.8667 5.75089 9.8667 6.77653C9.8667 7.80218 10.7456 8.63363 11.8298 8.63363Z" fill="black"/>
    <path d="M17.0299 7.51852C17.9776 7.51852 18.7458 6.79176 18.7458 5.89525C18.7458 4.99874 17.9776 4.27197 17.0299 4.27197C16.0822 4.27197 15.314 4.99874 15.314 5.89525C15.314 6.79176 16.0822 7.51852 17.0299 7.51852Z" fill="black"/>
    <path d="M21.493 7.52276C22.3068 7.52276 22.9665 6.89867 22.9665 6.12881C22.9665 5.35896 22.3068 4.73486 21.493 4.73486C20.6792 4.73486 20.0195 5.35896 20.0195 6.12881C20.0195 6.89867 20.6792 7.52276 21.493 7.52276Z" fill="black"/>
    <path d="M22.3251 12.4422C23.1389 12.4422 23.7986 11.8181 23.7986 11.0482C23.7986 10.2784 23.1389 9.6543 22.3251 9.6543C21.5113 9.6543 20.8516 10.2784 20.8516 11.0482C20.8516 11.8181 21.5113 12.4422 22.3251 12.4422Z" fill="black"/>
    <path d="M17.8614 12.4824C18.8091 12.4824 19.5774 11.7556 19.5774 10.8591C19.5774 9.9626 18.8091 9.23584 17.8614 9.23584C16.9138 9.23584 16.1455 9.9626 16.1455 10.8591C16.1455 11.7556 16.9138 12.4824 17.8614 12.4824Z" fill="black"/>
    <path d="M13.0037 24.8348C13.492 24.8348 13.8878 24.4604 13.8878 23.9985C13.8878 23.5366 13.492 23.1621 13.0037 23.1621C12.5155 23.1621 12.1196 23.5366 12.1196 23.9985C12.1196 24.4604 12.5155 24.8348 13.0037 24.8348Z" fill="black"/>
    <path d="M16.5355 24.4121C17.1314 24.4121 17.6145 23.9551 17.6145 23.3913C17.6145 22.8276 17.1314 22.3706 16.5355 22.3706C15.9396 22.3706 15.4565 22.8276 15.4565 23.3913C15.4565 23.9551 15.9396 24.4121 16.5355 24.4121Z" fill="black"/>
    <path d="M20.4143 23.0229C21.0916 23.0229 21.6407 22.5035 21.6407 21.8628C21.6407 21.222 21.0916 20.7026 20.4143 20.7026C19.737 20.7026 19.188 21.222 19.188 21.8628C19.188 22.5035 19.737 23.0229 20.4143 23.0229Z" fill="black"/>
    <path d="M21.3456 26.7366C22.1594 26.7366 22.8191 26.1125 22.8191 25.3427C22.8191 24.5728 22.1594 23.9487 21.3456 23.9487C20.5318 23.9487 19.8721 24.5728 19.8721 25.3427C19.8721 26.1125 20.5318 26.7366 21.3456 26.7366Z" fill="black"/>
    <path d="M16.6355 27.6181C17.3128 27.6181 17.8619 27.0987 17.8619 26.458C17.8619 25.8173 17.3128 25.2979 16.6355 25.2979C15.9582 25.2979 15.4092 25.8173 15.4092 26.458C15.4092 27.0987 15.9582 27.6181 16.6355 27.6181Z" fill="black"/>
    <path d="M12.4667 27.5688C13.0626 27.5688 13.5457 27.1118 13.5457 26.5481C13.5457 25.9843 13.0626 25.5273 12.4667 25.5273C11.8708 25.5273 11.3877 25.9843 11.3877 26.5481C11.3877 27.1118 11.8708 27.5688 12.4667 27.5688Z" fill="black"/>
    <path d="M12.5144 30.7748C13.1917 30.7748 13.7408 30.2554 13.7408 29.6147C13.7408 28.974 13.1917 28.4546 12.5144 28.4546C11.8371 28.4546 11.2881 28.974 11.2881 29.6147C11.2881 30.2554 11.8371 30.7748 12.5144 30.7748Z" fill="black"/>
    <path d="M17.5194 31.3772C18.3332 31.3772 18.9929 30.7532 18.9929 29.9833C18.9929 29.2134 18.3332 28.5894 17.5194 28.5894C16.7056 28.5894 16.0459 29.2134 16.0459 29.9833C16.0459 30.7532 16.7056 31.3772 17.5194 31.3772Z" fill="black"/>
    <path d="M23.3561 30.7705C24.3037 30.7705 25.072 30.0437 25.072 29.1472C25.072 28.2507 24.3037 27.5239 23.3561 27.5239C22.4084 27.5239 21.6401 28.2507 21.6401 29.1472C21.6401 30.0437 22.4084 30.7705 23.3561 30.7705Z" fill="black"/>
    <path d="M26.7932 34.8128C27.8774 34.8128 28.7563 33.9814 28.7563 32.9557C28.7563 31.9301 27.8774 31.0986 26.7932 31.0986C25.709 31.0986 24.8301 31.9301 24.8301 32.9557C24.8301 33.9814 25.709 34.8128 26.7932 34.8128Z" fill="black"/>
    <path d="M19.5777 35.3657C20.5254 35.3657 21.2937 34.6389 21.2937 33.7424C21.2937 32.8459 20.5254 32.1191 19.5777 32.1191C18.6301 32.1191 17.8618 32.8459 17.8618 33.7424C17.8618 34.6389 18.6301 35.3657 19.5777 35.3657Z" fill="black"/>
    <path d="M15.5089 38.5224C16.4566 38.5224 17.2248 37.7957 17.2248 36.8992C17.2248 36.0026 16.4566 35.2759 15.5089 35.2759C14.5612 35.2759 13.793 36.0026 13.793 36.8992C13.793 37.7957 14.5612 38.5224 15.5089 38.5224Z" fill="black"/>
    <path d="M18.8928 42.6097C19.977 42.6097 20.8559 41.7783 20.8559 40.7526C20.8559 39.727 19.977 38.8955 18.8928 38.8955C17.8086 38.8955 16.9297 39.727 16.9297 40.7526C16.9297 41.7783 17.8086 42.6097 18.8928 42.6097Z" fill="black"/>
    <path d="M27.9196 43.3519C29.1928 43.3519 30.2249 42.3755 30.2249 41.1711C30.2249 39.9666 29.1928 38.9902 27.9196 38.9902C26.6464 38.9902 25.6143 39.9666 25.6143 41.1711C25.6143 42.3755 26.6464 43.3519 27.9196 43.3519Z" fill="black"/>
    <path d="M22.9665 39.4534C24.0507 39.4534 24.9296 38.622 24.9296 37.5964C24.9296 36.5707 24.0507 35.7393 22.9665 35.7393C21.8823 35.7393 21.0034 36.5707 21.0034 37.5964C21.0034 38.622 21.8823 39.4534 22.9665 39.4534Z" fill="black"/>
    <path d="M31.6984 38.7113C32.9716 38.7113 34.0037 37.7349 34.0037 36.5305C34.0037 35.326 32.9716 34.3496 31.6984 34.3496C30.4252 34.3496 29.3931 35.326 29.3931 36.5305C29.3931 37.7349 30.4252 38.7113 31.6984 38.7113Z" fill="black"/>
    <path d="M13.4462 34.534C14.26 34.534 14.9197 33.9099 14.9197 33.14C14.9197 32.3702 14.26 31.7461 13.4462 31.7461C12.6324 31.7461 11.9727 32.3702 11.9727 33.14C11.9727 33.9099 12.6324 34.534 13.4462 34.534Z" fill="black"/>
</svg>